<svg xmlns="http://www.w3.org/2000/svg" xmlns:xlink="http://www.w3.org/1999/xlink" viewBox="0 0 312 345"><defs><linearGradient id="a" x1="71.02" y1="265.31" x2="365.93" y2="265.31" gradientUnits="userSpaceOnUse"><stop offset="0.25" stop-color="#000aad"/><stop offset="0.32" stop-color="#010833"/></linearGradient><linearGradient id="b" x1="-24.1" y1="282.56" x2="164.11" y2="214.06" gradientUnits="userSpaceOnUse"><stop offset="0.03" stop-color="#000aad"/><stop offset="1" stop-color="#000664"/></linearGradient><linearGradient id="c" x1="156" y1="45.73" x2="156" y2="263.25" gradientUnits="userSpaceOnUse"><stop offset="0" stop-color="#a1ecff"/><stop offset="0.97" stop-color="#000aad"/></linearGradient></defs><path d="M14.09,217v14.65c.14,2,1.66,4.1,4.51,5.75L146.05,311c5.5,3.17,13.81,3.51,18.56.77l130.12-75.12c2.28-1.32,3.32-3.12,3.19-5V217Z" fill="url(#a)"/><path d="M294.73,222,164.61,297.1c-4.75,2.75-13.06,2.41-18.56-.76L18.6,222.75c-5.49-3.17-6.09-8-1.33-10.71l130.12-75.12c4.75-2.75,13.06-2.41,18.56.76L293.4,211.27C298.89,214.44,299.49,219.24,294.73,222Z" fill="url(#b)"/><path d="M258.3,152.66a28.92,28.92,0,0,0-5.05.45,23.52,23.52,0,0,0,.69-5.66c0-13.94-12-25.24-26.77-25.24a28.66,28.66,0,0,0-5,.45,42.81,42.81,0,0,0,.73-7.81c0-24.85-21.35-45-47.7-45-17.42,0-32.65,8.81-41,22a45.16,45.16,0,0,0-58.82,25.24,43,43,0,0,0-5.93-.42,42.51,42.51,0,0,0,0,85H262.13c14.78,0,22.93-9.81,22.93-23.76S273.08,152.66,258.3,152.66Z" fill="url(#c)"/><path d="M192.45,181.05H166.24V154.83A10.24,10.24,0,0,0,156,144.6h0a10.24,10.24,0,0,0-10.24,10.23v26.22H119.55a10.24,10.24,0,0,0-10.24,10.24h0a10.24,10.24,0,0,0,10.24,10.24h26.21v26.21A10.24,10.24,0,0,0,156,238h0a10.24,10.24,0,0,0,10.24-10.24V201.53h26.21a10.24,10.24,0,0,0,10.24-10.24h0A10.24,10.24,0,0,0,192.45,181.05Z" fill="#fff"/></svg>